<svg xmlns="http://www.w3.org/2000/svg" width="164" height="164" viewBox="0 0 164 164" fill="none">
  <circle cx="82" cy="82" r="52" stroke="#4B1D6B" stroke-width="6" />
  <path d="M94 58c0 6.627-5.373 12-12 12s-12-5.373-12-12 5.373-12 12-12 12 5.373 12 12Z" fill="#4B1D6B" />
  <path d="M94 58v36c0 10-8 18-18 18s-18-8-18-18" stroke="#4B1D6B" stroke-width="6" stroke-linecap="round" />
  <path d="M112.5 55c1.9-5.2 8.1-8.5 13.6-6.3-1.2 5.8-6.4 10.1-12.3 9.9-1.4-.1-2.6 1-2.6 2.3 0 1.3.9 2.4 2.2 2.5 7 .5 13.4-4.5 14.9-11.4 2.1-9.4-6.6-17.7-15.8-14.8-4.5 1.4-8.1 5.2-9.3 9.8-.4 1.3.4 2.7 1.7 3.1 1.2.4 2.6-.3 3-1.6Z" fill="#66B447" />
</svg>
